<svg id="Layer_1" data-name="Layer 1" xmlns="http://www.w3.org/2000/svg" viewBox="0 0 94 94"><path d="M27,31.33a10,10,0,0,1-4.15-.65.74.74,0,0,1-.34-1,.76.76,0,0,1,1-.35c.08,0,4.57,2,15.75-2.2a6.75,6.75,0,0,1,8,2.3.75.75,0,1,1-1.17.94,5.25,5.25,0,0,0-6.31-1.83C33.83,30.76,29.67,31.33,27,31.33Z"/><path d="M36.31,50.11a6.16,6.16,0,0,1-2.5-.56,3.26,3.26,0,0,1-1.74-4L35,36.65a.76.76,0,0,1,.28-.38c1.2-.84,11.77-8.21,14.71-8.52,1.16-.13,2.89.43,5.3,1.2,4.09,1.31,9.7,3.1,15.16,2.27a.75.75,0,0,1,.85.63.75.75,0,0,1-.63.86c-5.81.87-11.6-1-15.84-2.33a17,17,0,0,0-4.68-1.14c-1.91.2-9.21,4.91-13.8,8.11L33.5,46a1.77,1.77,0,0,0,.93,2.15c1.66.75,4.12.89,6.41-2.73a24.58,24.58,0,0,0,2-3.67.76.76,0,0,1,.37-.4L50.24,38a.75.75,0,0,1,1,.35.74.74,0,0,1-.35,1l-6.81,3.3a27.32,27.32,0,0,1-2,3.64C40.18,49.32,38,50.11,36.31,50.11Z"/><path d="M24.06,59.69a.75.75,0,0,1-.66-.4c-2.24-4.32-8.51-5.11-8.57-5.12a.75.75,0,0,1-.66-.83.74.74,0,0,1,.84-.65c.29,0,7.12.89,9.72,5.91a.76.76,0,0,1-.32,1A.85.85,0,0,1,24.06,59.69Z"/><path d="M27.32,67.48A5.61,5.61,0,0,1,22.14,64a11.17,11.17,0,0,1-.74-2.2.72.72,0,0,1-.07-.5.74.74,0,0,1,.24-.46,17.39,17.39,0,0,1,5.8-5.41,3.92,3.92,0,0,1,4.63.37c1.45,1.19,2.38,3.47,2,4.78a10.21,10.21,0,0,1-2.55,3.18,11.94,11.94,0,0,0-2.61,3.15.74.74,0,0,1-.55.49A4.15,4.15,0,0,1,27.32,67.48Zm-4.44-5.91a10,10,0,0,0,.63,1.79A4.09,4.09,0,0,0,27.57,66a15.24,15.24,0,0,1,2.77-3.28,11.22,11.22,0,0,0,2.19-2.58A4,4,0,0,0,31.05,57a2.44,2.44,0,0,0-3-.22A16.25,16.25,0,0,0,22.88,61.57Z"/><path d="M21.37,62.24A5.56,5.56,0,0,1,19.55,62a4.74,4.74,0,0,1-3.2-2.83c-.87-2.45.81-5.19.89-5.31a.75.75,0,0,1,1.27.8s-1.38,2.25-.74,4A3.31,3.31,0,0,0,20,60.54a4.73,4.73,0,0,0,2,.17.75.75,0,0,1,.15,1.49A6.74,6.74,0,0,1,21.37,62.24Z"/><path d="M33.36,72.81a5.26,5.26,0,0,1-2.57-.8c-2.36-1.35-3.39-5-3.43-5.15a.75.75,0,1,1,1.45-.4s.9,3.2,2.73,4.25a3,3,0,0,0,2.15.57c.61-.88,3.43-4.92,4.91-6.55.55-.59.48-2.24-.42-3.39s-2.63-1.4-4.58-.34a.76.76,0,0,1-1-.31.74.74,0,0,1,.3-1c2.6-1.41,5-1.13,6.49.74,1.28,1.64,1.43,4.13.34,5.33-1.57,1.71-4.86,6.49-4.89,6.54a1.29,1.29,0,0,1-.16.17A2.25,2.25,0,0,1,33.36,72.81Z"/><path d="M40,76.26a7.14,7.14,0,0,1-6.53-4.12.75.75,0,0,1,1.39-.56c.08.18,1.75,4,6.84,3v0c-.64-1-.51-2.59.38-4.65a3.05,3.05,0,0,0,.15-2.8c-.76-1.27-2.88-1.48-2.9-1.48a.76.76,0,0,1-.69-.81.77.77,0,0,1,.81-.69c.12,0,2.9.27,4.06,2.21a4.4,4.4,0,0,1-.05,4.16c-.92,2.14-.65,3-.5,3.25a.79.79,0,0,0,.56.36.75.75,0,0,1,.69.65.73.73,0,0,1-.48.8A11.1,11.1,0,0,1,40,76.26Z"/><path d="M46.64,76.25a8.38,8.38,0,0,1-3.48-.74.74.74,0,0,1-.33-1,.75.75,0,0,1,1-.33h0A6.42,6.42,0,0,0,51,73a.78.78,0,0,1,.7-.18A3.82,3.82,0,0,0,56.45,70a.76.76,0,0,1,.84-.53s3,.46,4.61-.92A3.42,3.42,0,0,0,63,65.79a.73.73,0,0,1,.76-.74.75.75,0,0,1,.68.46,5.73,5.73,0,0,0,1.78,0,2.66,2.66,0,0,0,1.87-1,2.4,2.4,0,0,0,.48-1.84c-.22-1.56-1.34-3-2.56-4.45-5.36-6.34-11.33-12.86-18.7-17.58a.76.76,0,0,1-.23-1,.75.75,0,0,1,1-.22c7.53,4.82,13.6,11.44,19,17.87,1.37,1.63,2.63,3.25,2.91,5.21a3.91,3.91,0,0,1-.79,3A4.14,4.14,0,0,1,66.39,67a8.15,8.15,0,0,1-2,0,4.57,4.57,0,0,1-1.54,2.66A7.5,7.5,0,0,1,57.69,71a5.23,5.23,0,0,1-6,3.34A7.61,7.61,0,0,1,46.64,76.25Z"/><path d="M51.49,74.28a.74.74,0,0,1-.45-.15,58.55,58.55,0,0,1-5.65-4.8.74.74,0,0,1,0-1.06.75.75,0,0,1,1.06,0,58.53,58.53,0,0,0,5.49,4.66.75.75,0,0,1-.45,1.35Z"/><path d="M57.17,70.94a.73.73,0,0,1-.51-.21l-8.19-7.8a.75.75,0,1,1,1-1.09l8.19,7.81a.75.75,0,0,1,0,1.06A.78.78,0,0,1,57.17,70.94Z"/><path d="M63.77,66.55a.76.76,0,0,1-.51-.2s-3.91-3.68-5.87-5.72l-.86-.89c-1.75-1.79-3.26-3.34-3.76-4.58a.74.74,0,0,1,.4-1,.75.75,0,0,1,1,.4c.4,1,1.88,2.49,3.45,4.1l.87.9c1.94,2,5.78,5.63,5.81,5.66a.75.75,0,0,1-.51,1.3Z"/><path d="M69,62.13a.76.76,0,0,1-.65-.38.74.74,0,0,1,.28-1l11.23-6.45a.76.76,0,0,1,1,.28.75.75,0,0,1-.28,1L69.38,62A.69.69,0,0,1,69,62.13Z"/><path d="M11.33,61.1c-.91,0-3.95-.41-9.79-4.92a.74.74,0,0,1-.13-1A.75.75,0,0,1,2.46,55c4.94,3.82,7.68,4.48,8.6,4.59,1.57-3,11.21-21.87,11.9-34.22A122.61,122.61,0,0,0,6.45,19.2a.74.74,0,0,1-.51-.93.75.75,0,0,1,.93-.5,120.5,120.5,0,0,1,17.2,6.45.77.77,0,0,1,.42.7C24,38.63,12.65,59.8,12.16,60.7a.75.75,0,0,1-.55.38A1.35,1.35,0,0,1,11.33,61.1Z"/><path d="M78.85,65.88a3.12,3.12,0,0,1-.78-.11c-2-.56-4-3-5.45-6.64a.75.75,0,0,1,1.4-.55c1.47,3.73,3.32,5.42,4.45,5.74a.87.87,0,0,0,.72,0c4.54-2.68-4-22.34-10.48-34.1a.77.77,0,0,1,0-.61.71.71,0,0,1,.41-.44l19.79-8.58a.75.75,0,0,1,1,.39.76.76,0,0,1-.39,1l-19,8.25c3,5.49,16.41,31.33,9.6,35.34A1.84,1.84,0,0,1,78.85,65.88Z"/><path d="M79.64,65.62a.75.75,0,0,1-.38-1.4l12.36-7.29a.76.76,0,0,1,1,.27.75.75,0,0,1-.27,1L80,65.51A.76.76,0,0,1,79.64,65.62Z"/></svg>